<svg xmlns="http://www.w3.org/2000/svg" version="1.1" xmlns:xlink="http://www.w3.org/1999/xlink" xmlns:svgjs="http://svgjs.dev/svgjs" width="100%" height="100%" viewBox="0 0 1000 600"><rect width="1000" height="600" x="0" y="0" fill="#00000"/><g><circle r="166.66666666666666" cx="382.20351664225257" cy="404.4257604893694" fill="#3c1a5b" transform="matrix(0.5799471930895668,0,0,0.5799471930895667,0,65.45441122141551)"/><path d="M338.3508370786104 464.16755933728183L338.3508370786104 329.4257825391469L354.254592092676 329.4257825391469L354.254592092676 479.4257744799277L317.3121058146159 479.4257744799277L317.3121058146159 464.16755933728183L338.3508370786104 464.16755933728183ZM411.1794716633166 384.0912725598188L411.1794716633166 369.4492545671643L447.09496269139083 369.4492545671643L447.09496269139083 447.64760717322474L381.6900366280105 447.64760717322474L381.6900366280105 329.4257825391469L447.09496269139083 329.4257825391469L447.09496269139083 344.88939673179L398.18064607063934 344.88939673179L398.18064607063934 432.8001901305731L431.3966067273225 432.8001901305731L431.3966067273225 384.0912725598188L411.1794716633166 384.0912725598188Z " fill="#fff748" transform="matrix(0.5799471930895668,0,0,0.5799471930895667,0,65.45441122141551)"/><path d="M652.4083023720905 458.8264881551924L652.4083023720905 329.4257824326596L667.6816435092013 329.4257824326596L667.6816435092013 473.4798781760367L632.2035319010417 473.4798781760367L632.2035319010417 458.8264881551924L652.4083023720905 458.8264881551924ZM682.9268050501182 402.354577382554L737.623401262539 402.354577382554L737.623401262539 388.2647792855883L682.9268050501182 388.2647792855883L682.9268050501182 402.354577382554ZM787.1349517752764 381.9243701419537L787.1349517752764 367.862751641182L821.6267775166484 367.862751641182L821.6267775166484 442.9613754980091L758.8144576003754 442.9613754980091L758.8144576003754 329.4257824326596L821.6267775166484 329.4257824326596L821.6267775166484 344.2764296268614L774.6513906613648 344.2764296268614L774.6513906613648 428.7024998238798L806.5788731490891 428.7024998238798L806.5788731490891 381.9243701419537L787.1349517752764 381.9243701419537ZM891.7657924433436 386.0949503786556L891.7657924433436 368.25726598789703L869.9829645854346 368.45452316125454L869.9829645854346 442.9613754980091L854.1178519282513 442.9613754980091L854.1178519282513 353.6038759670527L906.813696810903 353.6038759670527L906.813696810903 386.0949503786556L891.7657924433436 386.0949503786556ZM935.556884928713 390.2655306153574L982.1095778410876 390.2655306153574L982.1095778410876 367.862751641182L935.1623705819978 367.862751641182L935.1623705819978 353.6038759670527L997.9746904982709 353.6038759670527L997.9746904982709 442.9613754980091L935.556884928713 442.9613754980091L935.556884928713 390.2655306153574ZM982.1095778410876 428.3079854771648L982.1095778410876 404.7216634628442L950.2102749495572 404.7216634628442L950.2102749495572 428.3079854771648L982.1095778410876 428.3079854771648ZM1077.4129721689633 353.6038759670527L1093.2780848261468 353.6038759670527L1093.2780848261468 479.4257729729563L1030.465764909874 479.4257729729563L1030.465764909874 465.3641544721845L1077.4129721689633 465.3641544721845L1077.4129721689633 442.9613754980091L1030.860279256589 442.9613754980091L1030.860279256589 353.6038759670527L1045.513669277433 353.6038759670527L1045.513669277433 428.3079854771648L1077.4129721689633 428.3079854771648L1077.4129721689633 353.6038759670527ZM1181.2547841436005 343.6846581067889L1181.2547841436005 427.51895678373467L1207.2081922382113 427.51895678373467L1211.1533357053618 422.7566050269603L1211.1533357053618 349.6305529037084L1207.2081922382113 343.6846581067889L1181.2547841436005 343.6846581067889ZM1208.7862496250714 442.9613754980091L1166.1787001798473 442.9613754980091L1166.1787001798473 329.4257824326596L1210.7588213586466 329.4257824326596L1228.9910200961203 355.7737048739854L1228.9910200961203 418.5860247902585L1208.7862496250714 442.9613754980091ZM1323.899900077281 406.4969780230619L1277.3472071649066 406.4969780230619L1277.3472071649066 428.7024998238798L1324.294414423996 428.7024998238798L1324.294414423996 442.9613754980091L1261.482094507723 442.9613754980091L1261.482094507723 353.6038759670527L1323.899900077281 353.6038759670527L1323.899900077281 406.4969780230619ZM1277.3472071649066 368.25726598789703L1277.3472071649066 391.8435880022176L1309.4437672297945 391.8435880022176L1309.4437672297945 368.25726598789703L1277.3472071649066 368.25726598789703ZM1405.141675904385 353.6038759670527L1423.7683889885739 353.6038759670527L1399.393038280823 442.9613754980091L1371.0725441059221 442.9613754980091L1346.6971933981717 353.6038759670527L1366.9019638692203 353.6038759670527L1383.133411276925 428.7024998238798L1388.8820489004866 428.7024998238798L1405.141675904385 353.6038759670527ZM1492.9211180484813 428.11072830380726L1461.021815156951 428.11072830380726L1461.021815156951 420.5585965238336L1445.9457311931978 420.5585965238336L1445.9457311931978 442.9613754980091L1508.3635367627558 442.7641183246516L1508.3635367627558 397.00045410570704L1461.810843850381 386.0949503786556L1461.810843850381 368.45452316125454L1493.9074039152688 368.45452316125454L1493.9074039152688 386.0949503786556L1508.7580511094707 386.0949503786556L1508.7580511094707 353.6038759670527L1445.9457311931978 353.6038759670527L1445.9457311931978 400.3538260527849L1492.9211180484813 411.25932977983626L1492.9211180484813 428.11072830380726Z " fill="#3c1a5b" transform="matrix(0.5799471930895668,0,0,0.5799471930895667,0,65.45441122141551)"/></g></svg>